<?xml version="1.0" encoding="utf-8"?>
<?xml-stylesheet type="text/xsl" href="rss1.xsl"?>
<rss version="2.0" xmlns:atom="http://www.w3.org/2005/Atom" xmlns:content="http://purl.org/rss/1.0/modules/content/" xmlns:dc="http://purl.org/dc/elements/1.1/" xmlns:media="http://search.yahoo.com/mrss/">
<channel>
 <title>Getty</title>
 <link>http://www.gettyimg.com/</link>
 <atom:link href="http://www.gettyimg.com/" rel="self" type="application/rss+xml" />

 
                <item>
                <title><![CDATA[【Music Videos】Richard Marx - Children Of The Night (1080p 5.1) (Clean)]]></title>
                <link><![CDATA[https://sharemania.us/threads/richard-marx-children-of-the-night-1080p-5-1-clean.247560/]]></link>
                <description><![CDATA[<article>
<blockquote class="messageText SelectQuoteContainer ugc baseHtml">
<img src="https://i.ibb.co/2chRhZB/Richard-Marx-Children-Of-The-Night-1080p-5-1-mp4-thumbs-2024-06-20-23-57-42.jpg" class="bbCodeImage LbImage" alt="[​IMG]" data-url="https://i.ibb.co/2chRhZB/Richard-Marx-Children-Of-The-Night-1080p-5-1-mp4-thumbs-2024-06-20-23-57-42.jpg" style=""> <br>
<br>
<div class="ToggleTriggerAnchor bbCodeSpoilerContainer">
<button type="button" class="button bbCodeSpoilerButton ToggleTrigger Tooltip JsOnly" data-target="> .SpoilerTarget"><span>Spoiler: <span class="SpoilerTitle">MediaInfo</span></span></button>
<div class="SpoilerTarget bbCodeSpoilerText">Richard Marx - Children Of The Night (1080p 5.1).mp4<br>
Format : MPEG-4<br>
Format profile : Base Media / Version 2<br>
Codec ID : mp42 (mp42/mp41)<br>
File size : 345 MiB<br>
Duration : 4 min 40 s<br>
Overall bit rate mode : Variable<br>
Overall bit rate : 10.3 Mb/s<br>
Frame rate : 30.000 FPS<br>
Encoded date : 2024-06-21 02:46:26 UTC<br>
Tagged date : 2024-06-21 03:48:16 UTC<br>
TIM : 00:00:00:00<br>
TSC : 30<br>
TSZ : 1<br>
<br>
Video<br>
ID : 1<br>
Format : AVC<br>
Format/Info : Advanced Video Codec<br>
Format profile : Main@L4.1<br>
Format settings : CABAC / 4 Ref Frames<br>
Format settings, CABAC : Yes<br>
Format settings, Reference : 4 frames<br>
Codec ID : avc1<br>
Codec ID/Info : Advanced Video Coding<br>
Duration : 4 min 40 s<br>
Bit rate : 10.0 Mb/s<br>
Width : 1 920 pixels<br>
Height : 1 080 pixels<br>
Display aspect ratio : 16:9<br>
Frame rate mode : Constant<br>
Frame rate : 30.000 FPS<br>
Color space : YUV<br>
Chroma subsampling : 4:2:0<br>
Bit depth : 8 bits<br>
Scan type : Progressive<br>
Bits/(Pixel*Frame) : 0.161<br>
Stream size : 335 MiB (97%)<br>
Language : English<br>
Encoded date : 2024-06-21 02:46:42 UTC<br>
Tagged date : 2024-06-21 02:46:42 UTC<br>
Color range : Limited<br>
Color primaries : BT.709<br>
Transfer characteristics : BT.709<br>
Matrix coefficients : BT.709<br>
Codec configuration box : avcC<br>
<br>
Audio<br>
ID : 2<br>
Format : AAC LC<br>
Format/Info : Advanced Audio Codec Low Complexity<br>
Codec ID : mp4a-40-2<br>
Duration : 4 min 40 s<br>
Source duration : 4 min 40 s<br>
Bit rate mode : Variable<br>
Bit rate : 317 kb/s<br>
Maximum bit rate : 355 kb/s<br>
Channel(s) : 6 channels<br>
Channel layout : C L R Ls Rs LFE<br>
Sampling rate : 48.0 kHz<br>
Frame rate : 46.875 FPS (1024 SPF)<br>
Compression mode : Lossy<br>
Stream size : 10.6 MiB (3%)<br>
Source stream size : 10.6 MiB (3%)<br>
Language : English<br>
Encoded date : 2024-06-21 02:46:37 UTC<br>
Tagged date : 2024-06-21 02:46:37 UTC</div>
</div><br>
<div class="bbCodeBlock bbCodeVfcHH HiddenContent">
<div class="attribution type">Hidden Content:</div>
<blockquote>You must reply before you can see the hidden data contained here.</blockquote>
</div>
<div class="messageTextEndMarker">&nbsp;</div>
</blockquote>
</article>]]></description>
                <author><![CDATA[DJ-RoGeRs-BS]]></author>
                </item>

                
                <item>
                <title><![CDATA[【Albums (lossy)】360 RA - I Am: Celine Dion (Original Motion Picture Soundtrack) [360 Reality Audio] [48.0kHz 16bit 9216 kbps]]]></title>
                <link><![CDATA[https://sharemania.us/threads/i-am-celine-dion-original-motion-picture-soundtrack-360-reality-audio-48-0khz-16bit-9216-kbps.247559/]]></link>
                <description><![CDATA[<article>
<blockquote class="messageText SelectQuoteContainer ugc baseHtml">
<div style="text-align: center"><b><b><img src="https://cdn-p.smehost.net/sites/85d1df5b22b54b9ba9d6cddb43b351e8/wp-content/uploads/2024/06/iAmCelineDion-cover-960x960-1-648x648.jpg" class="bbCodeImage LbImage" alt="[​IMG]" data-url="https://cdn-p.smehost.net/sites/85d1df5b22b54b9ba9d6cddb43b351e8/wp-content/uploads/2024/06/iAmCelineDion-cover-960x960-1-648x648.jpg" style=""> <br>
Source:</b> </b>Amazon Music<br>
<b><b><b><b><b><b>Format:</b></b></b></b> </b></b>WAV 7.1.4 channels​</div><b>Tracklist:</b><br>
01 Main Theme - Artist Always (Score)<br>
02 The Power Of Love<br>
03 Pour Que Tu M'aimes Encore<br>
04 A New Day Has Come (2024 Edit)<br>
05 The Episode (Score)<br>
06 J'irai Où Tu Iras (duo avec Jean-Jacques Goldman)<br>
07 Because You Loved Me<br>
08 The Diagnosis (Score)<br>
09 River Deep, Mountain High<br>
10 Mama Dion (Score)<br>
11 Zora Sourit<br>
12 My Heart Will Go On<br>
13 All By Myself<br>
14 The Awakening (Score)<br>
15 Ashes<br>
16 Swallows (Score)<br>
17 Love Again<br>
18 Je Crois Toi<br>
19 I'm Alive<br>
20 Talea (Score)<br>
<br>
<div style="text-align: center">
<div class="bbCodeBlock bbCodeVfcHH HiddenContent">
<div class="attribution type">Hidden Content:</div>
<blockquote>You must reply before you can see the hidden data contained here.</blockquote>
</div></div>
<div class="messageTextEndMarker">&nbsp;</div>
</blockquote>
</article>]]></description>
                <author><![CDATA[msc93]]></author>
                </item>

                </channel></rss>